<?xml version="1.0" standalone="no"?>
<!DOCTYPE svg PUBLIC "-//W3C//DTD SVG 20010904//EN"
 "http://www.w3.org/TR/2001/REC-SVG-20010904/DTD/svg10.dtd">
<svg version="1.0" xmlns="http://www.w3.org/2000/svg"
 width="97.000000pt" height="82.000000pt" viewBox="0 0 97.000000 82.000000"
 preserveAspectRatio="xMidYMid meet">

<g transform="translate(0.000000,82.000000) scale(0.100000,-0.100000)"
fill="#000000" stroke="none">
<path d="M619 653 c-157 -162 -319 -350 -341 -399 -13 -27 -5 -54 16 -54 8 0
36 30 62 68 65 90 161 199 327 369 136 139 158 173 116 181 -9 2 -81 -64 -180
-165z"/>
<path d="M82 748 c-5 -7 -26 -111 -47 -232 -34 -200 -36 -220 -21 -234 14 -14
18 -14 30 -2 16 17 91 443 82 465 -7 18 -30 19 -44 3z"/>
<path d="M695 150 c-178 -72 -221 -93 -223 -110 -2 -11 3 -23 12 -26 12 -5
336 116 454 169 29 13 26 51 -3 54 -11 1 -119 -39 -240 -87z"/>
</g>
</svg>
